<?xml version="1.0"?><!DOCTYPE svg  PUBLIC '-//W3C//DTD SVG 1.1//EN'  'http://www.w3.org/Graphics/SVG/1.1/DTD/svg11.dtd'><svg height="512px" style="enable-background:new 0 0 512 512;" version="1.1" viewBox="0 0 512 512" width="512px" xml:space="preserve" xmlns="http://www.w3.org/2000/svg" xmlns:xlink="http://www.w3.org/1999/xlink"><g id="disabled_star"><path d="M423.727,208.836c-1.646-5.068-6.027-8.762-11.302-9.528l-99.412-14.445L268.555,94.78   c-2.358-4.779-7.226-7.804-12.555-7.804s-10.196,3.025-12.554,7.804l-44.458,90.083l-99.412,14.445   c-5.273,0.766-9.655,4.46-11.302,9.528c-1.646,5.068-0.273,10.632,3.543,14.352l71.935,70.119l-16.981,99.011   c-0.901,5.252,1.258,10.561,5.569,13.692c2.439,1.772,5.328,2.674,8.23,2.674c2.229,0,4.465-0.531,6.513-1.608L256,360.329   l88.917,46.746c2.048,1.077,4.285,1.608,6.514,1.608c2.902,0,5.791-0.901,8.23-2.674c4.311-3.132,6.47-8.44,5.569-13.692   l-16.981-99.011l71.936-70.119C424,219.468,425.374,213.904,423.727,208.836z" style="fill:#A9A9A9;"/></g><g id="Layer_1"/></svg>